<svg xmlns="http://www.w3.org/2000/svg" width="684" height="445" viewBox="0 0 684 445">
  <rect id="Rectangle_41" data-name="Rectangle 41" width="684" height="445" fill="none"/>
  <path id="Path_15" data-name="Path 15" d="M68,270h0Z" transform="translate(562 155)" fill="#c63a3a"/>
  <g id="Ellipse_5" data-name="Ellipse 5" transform="translate(147)" fill="#c54343" stroke="#000" stroke-width="10">
    <ellipse cx="195.5" cy="174.5" rx="195.5" ry="174.5" stroke="none"/>
    <ellipse cx="195.5" cy="174.5" rx="190.5" ry="169.5" fill="none"/>
  </g>
  <g id="Ellipse_6" data-name="Ellipse 6" transform="translate(179 28)" fill="#fff" stroke="#000" stroke-width="10">
    <ellipse cx="163.5" cy="146.5" rx="163.5" ry="146.5" stroke="none"/>
    <ellipse cx="163.5" cy="146.5" rx="158.5" ry="141.5" fill="none"/>
  </g>
  <rect id="Rectangle_42" data-name="Rectangle 42" width="684" height="193" transform="translate(0 252)" fill="#c54343"/>
  <g id="dumbbell" transform="translate(211 -19.258)">
    <g id="Group_2" data-name="Group 2" transform="translate(0 128.258)">
      <path id="Path_16" data-name="Path 16" d="M251.058,173.578h-4.385V156.833a12.109,12.109,0,0,0-12.095-12.095h-8.24a12.025,12.025,0,0,0-4.385.826v-5.212a12.109,12.109,0,0,0-12.095-12.095h-16.48a12.109,12.109,0,0,0-12.095,12.095v33.226H81.871V140.353a12.109,12.109,0,0,0-12.095-12.095H53.3A12.109,12.109,0,0,0,41.2,140.353v5.212a12.025,12.025,0,0,0-4.385-.826h-8.24A12.109,12.109,0,0,0,16.48,156.833v16.746H12.1A12.109,12.109,0,0,0,0,185.673v16.48a12.109,12.109,0,0,0,12.095,12.095H16.48v16.746a12.109,12.109,0,0,0,12.095,12.095h8.24a12.025,12.025,0,0,0,4.385-.826v5.212a12.109,12.109,0,0,0,12.095,12.095h16.48A12.108,12.108,0,0,0,81.87,247.473V214.248h99.412v33.226a12.109,12.109,0,0,0,12.095,12.095h16.48a12.109,12.109,0,0,0,12.095-12.095v-5.212a12.025,12.025,0,0,0,4.385.826h8.24a12.109,12.109,0,0,0,12.095-12.095V214.248h4.385a12.109,12.109,0,0,0,12.095-12.095v-16.48A12.106,12.106,0,0,0,251.058,173.578ZM16.48,206.539H12.095a4.39,4.39,0,0,1-4.385-4.385v-16.48a4.39,4.39,0,0,1,4.385-4.385H16.48Zm53.3,45.32H53.3a4.39,4.39,0,0,1-4.385-4.385v-20.6a3.855,3.855,0,1,0-7.71,0v4.12a4.39,4.39,0,0,1-4.385,4.385h-8.24a4.39,4.39,0,0,1-4.385-4.385V156.832a4.39,4.39,0,0,1,4.385-4.385h8.24a4.39,4.39,0,0,1,4.385,4.385v53.562a3.855,3.855,0,0,0,7.71,0V140.353a4.39,4.39,0,0,1,4.385-4.385h16.48a4.39,4.39,0,0,1,4.385,4.385V247.473h0A4.39,4.39,0,0,1,69.776,251.859Zm111.506-45.32H81.871V181.287h99.412Zm57.681,24.455a4.39,4.39,0,0,1-4.385,4.385h-8.24a4.39,4.39,0,0,1-4.385-4.385V177.432a3.855,3.855,0,1,0-7.71,0v70.042a4.39,4.39,0,0,1-4.385,4.385h-16.48a4.39,4.39,0,0,1-4.385-4.385V140.353a4.39,4.39,0,0,1,4.385-4.385h16.48a4.39,4.39,0,0,1,4.385,4.385v20.6a3.855,3.855,0,0,0,7.71,0v-4.12a4.39,4.39,0,0,1,4.385-4.385h8.24a4.39,4.39,0,0,1,4.385,4.385Zm16.48-28.84a4.39,4.39,0,0,1-4.385,4.385h-4.385V181.287h4.385a4.39,4.39,0,0,1,4.385,4.385Z" transform="translate(0 -128.258)"/>
    </g>
  </g>
  <text id="KORZENIECKA" transform="translate(342 376)" fill="#fff" font-size="80" font-family="Roboto-Medium, Roboto" font-weight="500"><tspan x="-264.141" y="0">KORZENIECKA</tspan></text>
</svg>
